# xmcd
#
# Track frame offsets: 
#        150
#        18645
#        41545
#        52704
#        70521
#        86331
#        110924
#        129362
#        151162
#        168577
#        186674
#        201795
#
# Disc length: 2971 seconds
#
# Revision: 0
# Processed by: cddbd v1.5.2PL0 Copyright (c) Steve Scherf et al.
# Submitted via: ExactAudioCopy v1.1
#
DISCID=9b0b990c
DTITLE=Gaither Vocal Band - The New Edition
DYEAR=2014
DGENRE=Gospel
TTITLE0=Love is Like a River
TTITLE1=Home of Your Dreams
TTITLE2=Search Me, Lord
TTITLE3=Why Me, Lord?
TTITLE4=Build an Ark
TTITLE5=Lovin God, Lovin Each Other
TTITLE6=Winds of this World
TTITLE7=That Sounds Like Home to Me
TTITLE8=The Baptism of Jesse Taylor
TTITLE9=Please Forgive Me
TTITLE10=My Lord and I
TTITLE11=Knowing You'll Be There
EXTD=
EXTT0=
EXTT1=
EXTT2=
EXTT3=
EXTT4=
EXTT5=
EXTT6=
EXTT7=
EXTT8=
EXTT9=
EXTT10=
EXTT11=
PLAYORDER=
